<?xml version="1.0" standalone="no"?>
<!DOCTYPE svg PUBLIC "-//W3C//DTD SVG 20010904//EN"
 "http://www.w3.org/TR/2001/REC-SVG-20010904/DTD/svg10.dtd">
<svg version="1.0" xmlns="http://www.w3.org/2000/svg"
 width="512.000000pt" height="512.000000pt" viewBox="0 0 512.000000 512.000000"
 preserveAspectRatio="xMidYMid meet">

<g transform="translate(0.000000,512.000000) scale(0.100000,-0.100000)"
fill="#000000" stroke="none">
<path d="M2326 4889 c-351 -45 -703 -193 -966 -406 -89 -71 -238 -222 -305
-308 -183 -234 -311 -511 -370 -800 -42 -201 -46 -381 -43 -1570 3 -1015 5
-1105 21 -1159 58 -196 223 -357 405 -395 112 -23 227 -9 332 40 53 24 92 57
210 174 154 154 188 175 275 175 41 0 46 -4 196 -153 164 -164 220 -202 334
-232 75 -19 174 -19 250 0 115 30 160 60 315 211 83 82 163 150 183 159 43 18
139 20 170 4 12 -6 87 -75 167 -153 154 -151 215 -192 325 -221 116 -30 251
-14 363 42 67 34 176 148 219 229 71 134 67 58 71 1279 3 1189 -1 1369 -43
1570 -105 517 -421 967 -875 1248 -228 141 -505 235 -785 267 -106 12 -351 11
-449 -1z m-164 -1717 c62 -31 121 -89 155 -154 24 -46 28 -65 28 -138 0 -73
-4 -92 -28 -138 -59 -113 -154 -174 -278 -180 -67 -4 -85 0 -138 23 -71 32
-142 102 -173 172 -29 66 -29 180 0 245 30 68 97 136 167 170 54 26 69 29 140
26 59 -2 93 -9 127 -26z m1506 -7 c60 -33 110 -84 144 -147 19 -36 23 -58 23
-138 0 -87 -3 -100 -30 -149 -32 -57 -86 -110 -150 -144 -33 -18 -57 -22 -135
-22 -78 0 -102 4 -135 22 -64 34 -118 87 -150 144 -27 49 -30 62 -30 149 0 79
4 102 23 137 67 127 168 186 307 180 66 -3 90 -8 133 -32z"/>
</g>
</svg>
